<svg width="672" height="274" viewBox="0 0 672 274" fill="none" xmlns="http://www.w3.org/2000/svg">
<g clip-path="url(#clip0_62_198)">
<path d="M16.4193 203.837C7.35987 203.837 0.0177612 196.495 0.0177612 187.435V20.645C0.0177612 11.5856 7.35987 4.23102 16.4193 4.23102H27.5818C36.6412 4.23102 43.9833 11.5856 43.9833 20.645V140.931C43.9833 150.003 51.3378 157.345 60.3972 157.345H119.943C129.015 157.345 136.357 164.687 136.357 173.759V187.435C136.357 196.495 129.015 203.837 119.943 203.837H16.4193Z" fill="#FFFFFF"/>
<path d="M224.45 31.4217C213.399 32.6412 206.692 34.2092 196.351 38.0918C191.896 39.7718 180.123 46.7281 177.386 49.2916C176.987 49.6525 175.955 50.4738 175.059 51.1085C172.856 52.7138 167.468 58.2017 164.406 62.0594C162.975 63.8016 161.619 65.5189 161.37 65.8425C160.474 66.9127 157.948 70.758 157.948 70.9695C157.948 71.1188 157.624 71.6913 157.201 72.2513C154.7 75.7481 149.461 88.3417 147.992 94.3274C142.753 115.756 144.894 138.517 153.916 156.561C156.38 161.477 160.685 168.433 162.975 171.208C163.647 172.029 164.618 173.211 165.153 173.883C167.754 177.206 175.78 184.374 181.268 188.294C183.259 189.688 188.859 193.11 189.145 193.11C189.257 193.11 190.713 193.782 192.431 194.64C199.449 198.063 204.838 199.855 213.038 201.447C225.271 203.837 238.935 203.837 250.52 201.485C262.716 198.996 268.602 196.669 281.644 189.19C284.107 187.759 292.308 181.698 294.884 179.384C302.226 172.751 307.142 167.786 312.891 161.19C315.778 157.843 318.989 154.172 319.984 152.99C322.299 150.351 322.299 150.314 326.194 145.461C327.899 143.295 330.537 140.085 332.005 138.33C333.499 136.588 336.672 132.705 339.136 129.669C341.563 126.633 344.811 122.638 346.341 120.759C347.872 118.867 350.224 115.98 351.506 114.3C352.825 112.658 355.114 109.908 356.57 108.24C358.039 106.523 359.955 104.283 360.851 103.25C369.487 92.9087 378.821 83.6626 384.707 79.7054C387.781 77.677 394.625 74.0059 395.409 74.0059C395.62 74.0059 396.193 73.7944 396.616 73.5081C397.051 73.2219 398.719 72.6495 400.324 72.2513C408.737 70.1109 419.19 70.6211 426.607 73.5455C429.929 74.8646 433.675 76.781 433.886 77.2787C433.961 77.4281 434.173 77.565 434.347 77.565C434.919 77.565 438.877 80.7756 441.054 83.028C447.04 89.163 451.321 97.6126 453.287 107.095C454.208 111.662 454.419 122.364 453.635 126.608C452.889 130.702 451.458 135.344 449.964 138.48C449.218 140.085 448.571 141.503 448.571 141.578C448.571 141.69 447.538 143.333 446.293 145.249C443.444 149.53 440.581 152.566 437.022 155.13C436.45 155.528 435.815 156.026 435.554 156.275C434.708 157.059 428.423 160.195 425.748 161.153C421.119 162.796 418.58 163.156 411.673 163.156C403.037 163.156 399.403 162.373 391.949 158.801C388.851 157.345 380.463 151.882 380.463 151.347C380.463 151.173 380.289 151.036 380.102 151.036C379.891 151.036 379.219 150.6 378.572 150.065C376.581 148.385 364.672 136.339 362.631 133.913C359.495 130.204 357.217 127.852 356.72 127.852C356.471 127.852 355.425 128.848 354.43 130.067C352.041 133.017 346.764 139.338 344.985 141.404C343.417 143.221 343.093 143.644 341.239 146.033C340.567 146.929 339.211 148.609 338.178 149.779C337.17 150.961 335.963 152.38 335.502 152.952C335.029 153.562 334.071 154.67 333.362 155.453C331.47 157.631 330.537 159.087 330.537 159.871C330.537 161.228 339.235 170.71 347.66 178.488C353.26 183.689 364.348 191.044 372.188 194.79C376.929 197.03 378.646 197.714 383.674 199.17C419.588 209.835 457.817 199.344 478.885 173.062C484.983 165.471 487.695 161.091 490.831 153.699C491.727 151.534 492.611 149.455 492.797 149.07C494.502 145.361 496.605 136.663 497.464 129.993C498.783 119.502 498.149 105.166 495.971 96.2935C492.325 81.5596 485.878 69.2646 476.147 58.4506C463.84 44.8366 446.866 35.7025 427.714 32.4546C422.724 31.6332 413.876 31.1106 407.99 31.3221C390.269 31.9195 374.726 36.9469 359.781 46.8277C351.157 52.5396 339.347 63.6274 329.653 75.0761C327.115 78.1001 324.153 81.5222 323.083 82.7044C322.05 83.9115 320.445 85.8404 319.561 87.0226C317.769 89.3372 312.642 95.8331 312.356 96.1069C312.244 96.2189 311.497 97.0775 310.751 98.0731C309.967 99.0313 309.245 99.9273 309.145 100.039C309.033 100.139 308.685 100.612 308.399 101.109C308.075 101.607 305.76 104.494 303.222 107.593C300.696 110.667 297.871 114.126 296.95 115.259C296.054 116.403 294.984 117.723 294.561 118.183C294.162 118.656 291.275 122.003 288.214 125.674C269.921 147.215 261.111 154.881 248.169 160.444C245.953 161.377 240.889 162.721 237.927 163.156C233.907 163.766 224.91 163.156 220.318 161.937C208.471 158.913 197.707 149.07 192.891 136.8C190.427 130.49 189.145 122.426 189.432 115.084C190.253 95.1487 200.806 79.5685 217.929 73.1472C225.557 70.2602 237.89 70.3349 246.526 73.2592C249.624 74.3295 256.83 77.9632 257.788 78.996C257.9 79.108 258.858 79.7427 259.928 80.452C260.999 81.1738 262.467 82.2067 263.139 82.7791C265.205 84.4217 276.94 96.3931 280.225 100.213C284.506 105.204 286.708 107.518 287.243 107.518C287.53 107.518 289.098 105.813 290.778 103.673C292.458 101.57 294.026 99.6037 294.274 99.3175C294.523 99.0313 295.594 97.65 296.664 96.2935C297.734 94.8998 298.767 93.618 298.978 93.4065C299.165 93.1949 299.725 92.4732 300.235 91.8385C300.733 91.1914 301.293 90.4821 301.48 90.2705C301.691 90.0465 302.973 88.4163 304.329 86.6617C305.686 84.8822 308.287 81.6342 310.104 79.4192C311.92 77.2165 313.426 75.213 313.426 74.9641C313.426 73.6077 301.766 61.0888 295.058 55.2151C289.857 50.648 279.516 43.6544 273.592 40.6927C265.18 36.4865 255.66 33.5994 245.306 32.0688C241.71 31.5337 227.523 31.1106 224.45 31.4217Z" fill="#FFFFFF"/>
<path d="M510.107 238.768V82.804C510.107 54.1075 533.378 30.8368 562.075 30.8368H589.95C607.173 30.8368 615.921 34.0723 627.594 40.5309C639.341 47.0019 648.201 55.8871 654.187 67.1989C660.247 78.436 663.271 91.2163 663.271 105.54C663.271 118.332 660.247 131.187 654.187 142.424C648.139 153.662 639.192 166.616 627.37 173.075C615.548 179.471 601 182.657 583.703 182.657H537.908V144.951H582.446C596.471 144.951 610.744 138.106 617.19 125.127C620.326 118.955 621.907 113.541 621.907 105.54C621.907 97.538 620.326 90.4821 617.19 84.3844C612.026 74.1179 599.445 64.9962 587.822 64.9962H579.434C563.58 64.9962 550.713 77.8512 550.713 93.7176V238.768C550.713 250.864 541.604 260.645 530.416 260.645C519.217 260.645 510.107 250.864 510.107 238.768Z" fill="#FFFFFF"/>
</g>
<defs>
<linearGradient id="paint0_linear_62_198" x1="0.0177612" y1="4.23102" x2="136.357" y2="4.23102" gradientUnits="userSpaceOnUse">
<stop stop-color="#38BDF8"/>
<stop offset="1" stop-color="#0EA5E9"/>
</linearGradient>
<linearGradient id="paint1_linear_62_198" x1="145.18" y1="31.275" x2="498.149" y2="31.275" gradientUnits="userSpaceOnUse">
<stop stop-color="#38BDF8"/>
<stop offset="1" stop-color="#0EA5E9"/>
</linearGradient>
<linearGradient id="paint2_linear_62_198" x1="510.107" y1="30.8368" x2="663.271" y2="30.8368" gradientUnits="userSpaceOnUse">
<stop stop-color="#38BDF8"/>
<stop offset="1" stop-color="#0EA5E9"/>
</linearGradient>
<clipPath id="clip0_62_198">
<rect width="672" height="273.773" fill="white"/>
</clipPath>
</defs>
</svg>
