<svg width="1119" height="370" viewBox="0 0 1119 370" fill="none" xmlns="http://www.w3.org/2000/svg">
<g filter="url(#filter0_dd_62_232)">
<path d="M20 16C20 7.16343 27.1634 0 36 0H1083C1091.84 0 1099 7.16344 1099 16V313.516C1099 322.352 1091.84 329.516 1083 329.516H36C27.1635 329.516 20 322.352 20 313.516V16Z" fill="#101828" shape-rendering="crispEdges"/>
<path d="M522.191 54.568C523.019 54.568 523.757 54.814 524.405 55.306C525.065 55.786 525.575 56.476 525.935 57.376C526.307 58.264 526.493 59.314 526.493 60.526C526.493 61.75 526.307 62.812 525.935 63.712C525.575 64.6 525.065 65.29 524.405 65.782C523.757 66.262 523.019 66.502 522.191 66.502C521.363 66.502 520.625 66.262 519.977 65.782C519.329 65.29 518.819 64.6 518.447 63.712C518.075 62.812 517.889 61.75 517.889 60.526C517.889 59.314 518.075 58.264 518.447 57.376C518.819 56.476 519.329 55.786 519.977 55.306C520.625 54.814 521.363 54.568 522.191 54.568ZM522.191 56.746C521.795 56.746 521.441 56.89 521.129 57.178C520.829 57.466 520.595 57.892 520.427 58.456C520.259 59.008 520.175 59.698 520.175 60.526C520.175 61.342 520.259 62.038 520.427 62.614C520.595 63.178 520.829 63.604 521.129 63.892C521.441 64.18 521.795 64.324 522.191 64.324C522.611 64.324 522.971 64.18 523.271 63.892C523.571 63.604 523.805 63.178 523.973 62.614C524.141 62.038 524.225 61.342 524.225 60.526C524.225 59.698 524.141 59.008 523.973 58.456C523.805 57.892 523.571 57.466 523.271 57.178C522.971 56.89 522.611 56.746 522.191 56.746ZM529.229 53.398H531.623V70.12H529.229V53.398ZM525.791 59.428H530.237V61.336H525.791V59.428ZM535.665 59.32H547.113V61.228H535.665V59.32ZM533.757 62.866H548.841V64.792H533.757V62.866ZM540.039 63.964H542.433V70.084H540.039V63.964ZM535.665 54.298H546.933V56.206H538.113V60.238H535.665V54.298ZM549.876 61.534H564.96V63.424H549.876V61.534ZM556.338 62.758H558.768V66.286H556.338V62.758ZM551.64 67.888H563.322V69.814H551.64V67.888ZM551.64 64.81H554.052V68.374H551.64V64.81ZM557.4 53.722C558.6 53.722 559.65 53.866 560.55 54.154C561.45 54.43 562.146 54.832 562.638 55.36C563.142 55.876 563.394 56.488 563.394 57.196C563.394 57.892 563.142 58.498 562.638 59.014C562.146 59.53 561.45 59.932 560.55 60.22C559.65 60.508 558.6 60.652 557.4 60.652C556.212 60.652 555.168 60.508 554.268 60.22C553.368 59.932 552.666 59.53 552.162 59.014C551.658 58.498 551.406 57.892 551.406 57.196C551.406 56.488 551.658 55.876 552.162 55.36C552.666 54.832 553.368 54.43 554.268 54.154C555.168 53.866 556.212 53.722 557.4 53.722ZM557.4 55.63C556.704 55.63 556.098 55.69 555.582 55.81C555.078 55.93 554.682 56.104 554.394 56.332C554.118 56.56 553.98 56.848 553.98 57.196C553.98 57.52 554.118 57.802 554.394 58.042C554.682 58.282 555.078 58.462 555.582 58.582C556.098 58.69 556.704 58.744 557.4 58.744C558.108 58.744 558.714 58.69 559.218 58.582C559.734 58.462 560.13 58.282 560.406 58.042C560.682 57.802 560.82 57.52 560.82 57.196C560.82 56.848 560.682 56.56 560.406 56.332C560.13 56.104 559.734 55.93 559.218 55.81C558.714 55.69 558.108 55.63 557.4 55.63ZM570.488 54.91H572.738V58.654H574.844V54.91H577.058V66.142H570.488V54.91ZM572.738 60.508V64.234H574.844V60.508H572.738ZM582.044 53.416H584.33V70.084H582.044V53.416ZM580.01 59.788H582.764V61.696H580.01V59.788ZM578.408 53.686H580.64V69.346H578.408V53.686ZM594.167 56.062H598.073V57.952H594.167V56.062ZM594.023 59.5H597.947V61.426H594.023V59.5ZM597.677 53.416H600.089V63.01H597.677V53.416ZM592.259 54.55H594.797C594.797 56.062 594.515 57.4 593.951 58.564C593.387 59.716 592.541 60.694 591.413 61.498C590.285 62.29 588.875 62.92 587.183 63.388L586.265 61.516C587.681 61.144 588.827 60.676 589.703 60.112C590.579 59.536 591.221 58.876 591.629 58.132C592.049 57.388 592.259 56.584 592.259 55.72V54.55ZM587.165 54.55H593.933V56.458H587.165V54.55ZM594.563 63.226C595.691 63.226 596.675 63.364 597.515 63.64C598.367 63.916 599.021 64.306 599.477 64.81C599.945 65.314 600.179 65.914 600.179 66.61C600.179 67.306 599.945 67.906 599.477 68.41C599.021 68.914 598.367 69.304 597.515 69.58C596.675 69.868 595.691 70.012 594.563 70.012C593.435 70.012 592.445 69.868 591.593 69.58C590.753 69.304 590.099 68.914 589.631 68.41C589.163 67.906 588.929 67.306 588.929 66.61C588.929 65.914 589.163 65.314 589.631 64.81C590.099 64.306 590.753 63.916 591.593 63.64C592.445 63.364 593.435 63.226 594.563 63.226ZM594.563 65.062C593.879 65.062 593.291 65.122 592.799 65.242C592.319 65.362 591.947 65.536 591.683 65.764C591.419 65.992 591.287 66.274 591.287 66.61C591.287 66.946 591.419 67.234 591.683 67.474C591.947 67.702 592.319 67.876 592.799 67.996C593.291 68.104 593.879 68.158 594.563 68.158C595.247 68.158 595.829 68.104 596.309 67.996C596.789 67.876 597.161 67.702 597.425 67.474C597.689 67.234 597.821 66.946 597.821 66.61C597.821 66.274 597.689 65.992 597.425 65.764C597.161 65.536 596.789 65.362 596.309 65.242C595.829 65.122 595.247 65.062 594.563 65.062Z" fill="white"/>
<g clip-path="url(#clip0_62_232)">
<path d="M346.446 234.891C340.407 234.891 335.512 229.996 335.512 223.957V112.763C335.512 106.724 340.407 101.821 346.446 101.821H353.888C359.927 101.821 364.822 106.724 364.822 112.763V192.954C364.822 199.002 369.725 203.897 375.765 203.897H415.462C421.51 203.897 426.405 208.791 426.405 214.839V223.957C426.405 229.996 421.51 234.891 415.462 234.891H346.446Z" fill="url(#paint0_linear_62_232)"/>
<path d="M485.133 119.948C477.766 120.761 473.295 121.806 466.4 124.395C463.43 125.515 455.582 130.152 453.757 131.861C453.492 132.102 452.803 132.649 452.206 133.072C450.737 134.143 447.145 137.801 445.104 140.373C444.15 141.534 443.246 142.679 443.08 142.895C442.483 143.608 440.798 146.172 440.798 146.313C440.798 146.413 440.583 146.794 440.301 147.168C438.633 149.499 435.14 157.894 434.162 161.885C430.669 176.171 432.096 191.345 438.11 203.374C439.753 206.651 442.624 211.289 444.15 213.139C444.598 213.686 445.245 214.474 445.602 214.922C447.336 217.137 452.687 221.916 456.345 224.529C457.673 225.458 461.406 227.74 461.597 227.74C461.672 227.74 462.642 228.188 463.787 228.76C468.466 231.042 472.058 232.236 477.526 233.298C485.681 234.891 494.79 234.891 502.514 233.323C510.644 231.664 514.568 230.113 523.262 225.127C524.905 224.173 530.372 220.132 532.089 218.589C536.984 214.167 540.261 210.857 544.094 206.46C546.019 204.229 548.159 201.781 548.823 200.993C550.366 199.234 550.366 199.209 552.963 195.974C554.099 194.53 555.858 192.39 556.837 191.22C557.832 190.059 559.948 187.47 561.591 185.446C563.208 183.422 565.374 180.759 566.394 179.506C567.415 178.245 568.982 176.32 569.837 175.2C570.716 174.105 572.243 172.272 573.214 171.16C574.192 170.015 575.47 168.522 576.067 167.833C581.825 160.939 588.047 154.775 591.971 152.137C594.02 150.785 598.583 148.337 599.106 148.337C599.247 148.337 599.629 148.196 599.911 148.005C600.201 147.815 601.313 147.433 602.383 147.168C607.991 145.741 614.96 146.081 619.904 148.03C622.119 148.91 624.617 150.187 624.758 150.519C624.807 150.619 624.948 150.71 625.065 150.71C625.446 150.71 628.084 152.85 629.536 154.352C633.527 158.442 636.381 164.075 637.691 170.397C638.305 173.441 638.446 180.576 637.924 183.405C637.426 186.135 636.472 189.229 635.476 191.32C634.978 192.39 634.547 193.336 634.547 193.385C634.547 193.46 633.859 194.555 633.029 195.833C631.129 198.687 629.221 200.711 626.848 202.42C626.467 202.685 626.044 203.017 625.869 203.183C625.305 203.706 621.116 205.797 619.332 206.435C616.246 207.53 614.553 207.771 609.949 207.771C604.191 207.771 601.769 207.248 596.8 204.867C594.734 203.897 589.142 200.255 589.142 199.898C589.142 199.782 589.026 199.691 588.902 199.691C588.761 199.691 588.313 199.4 587.881 199.043C586.554 197.923 578.614 189.893 577.254 188.275C575.163 185.803 573.645 184.235 573.313 184.235C573.147 184.235 572.45 184.898 571.787 185.712C570.194 187.678 566.676 191.892 565.49 193.269C564.444 194.481 564.229 194.763 562.993 196.355C562.545 196.953 561.64 198.073 560.952 198.853C560.28 199.641 559.475 200.587 559.168 200.968C558.853 201.375 558.214 202.113 557.741 202.636C556.48 204.088 555.858 205.058 555.858 205.581C555.858 206.485 561.657 212.807 567.273 217.992C571.007 221.46 578.399 226.363 583.625 228.86C586.786 230.353 587.931 230.809 591.283 231.78C615.225 238.89 640.711 231.896 654.757 214.375C658.822 209.314 660.63 206.394 662.721 201.466C663.318 200.022 663.907 198.637 664.032 198.38C665.168 195.908 666.57 190.108 667.143 185.662C668.022 178.668 667.599 169.111 666.147 163.196C663.716 153.373 659.419 145.176 652.931 137.967C644.726 128.891 633.411 122.802 620.643 120.636C617.316 120.089 611.417 119.74 607.493 119.881C595.68 120.28 585.318 123.631 575.354 130.218C569.605 134.026 561.732 141.418 555.269 149.051C553.577 151.067 551.602 153.348 550.889 154.136C550.2 154.941 549.13 156.227 548.541 157.015C547.346 158.558 543.928 162.889 543.737 163.071C543.663 163.146 543.165 163.718 542.667 164.382C542.144 165.021 541.663 165.618 541.597 165.693C541.522 165.759 541.29 166.074 541.099 166.406C540.883 166.738 539.34 168.663 537.648 170.729C535.964 172.778 534.081 175.084 533.467 175.839C532.869 176.602 532.156 177.482 531.874 177.789C531.608 178.104 529.684 180.336 527.643 182.783C515.447 197.144 509.574 202.254 500.946 205.962C499.469 206.585 496.092 207.481 494.118 207.771C491.438 208.178 485.44 207.771 482.379 206.958C474.481 204.942 467.305 198.38 464.094 190.2C462.451 185.994 461.597 180.618 461.788 175.723C462.335 162.432 469.37 152.046 480.786 147.765C485.872 145.84 494.093 145.89 499.851 147.84C501.916 148.553 506.72 150.975 507.359 151.664C507.433 151.739 508.072 152.162 508.786 152.635C509.499 153.116 510.478 153.804 510.926 154.186C512.303 155.281 520.126 163.262 522.317 165.809C525.17 169.136 526.639 170.679 526.996 170.679C527.186 170.679 528.232 169.542 529.352 168.115C530.472 166.713 531.517 165.402 531.683 165.212C531.849 165.021 532.562 164.1 533.276 163.196C533.989 162.267 534.678 161.412 534.819 161.271C534.943 161.13 535.317 160.649 535.657 160.226C535.989 159.794 536.362 159.321 536.486 159.18C536.627 159.031 537.482 157.944 538.386 156.774C539.291 155.588 541.024 153.423 542.236 151.946C543.447 150.478 544.451 149.142 544.451 148.976C544.451 148.072 536.677 139.726 532.206 135.81C528.738 132.765 521.844 128.103 517.895 126.128C512.287 123.324 505.94 121.4 499.038 120.379C496.64 120.022 487.182 119.74 485.133 119.948Z" fill="url(#paint1_linear_62_232)"/>
<path d="M675.572 258.179V154.203C675.572 135.072 691.085 119.558 710.216 119.558H728.8C740.282 119.558 746.114 121.715 753.896 126.021C761.727 130.335 767.634 136.258 771.625 143.799C775.665 151.291 777.681 159.811 777.681 169.36C777.681 177.888 775.665 186.458 771.625 193.95C767.593 201.441 761.628 210.077 753.746 214.383C745.865 218.647 736.167 220.771 724.635 220.771H694.105V195.634H723.797C733.147 195.634 742.663 191.071 746.96 182.418C749.051 178.303 750.104 174.694 750.104 169.36C750.104 164.025 749.051 159.321 746.96 155.256C743.517 148.412 735.13 142.331 727.381 142.331H721.79C711.22 142.331 702.642 150.901 702.642 161.478V258.179C702.642 266.242 696.569 272.763 689.111 272.763C681.644 272.763 675.572 266.242 675.572 258.179Z" fill="url(#paint2_linear_62_232)"/>
</g>
</g>
<defs>
<filter id="filter0_dd_62_232" x="0" y="0" width="1119" height="369.516" filterUnits="userSpaceOnUse" color-interpolation-filters="sRGB">
<feFlood flood-opacity="0" result="BackgroundImageFix"/>
<feColorMatrix in="SourceAlpha" type="matrix" values="0 0 0 0 0 0 0 0 0 0 0 0 0 0 0 0 0 0 127 0" result="hardAlpha"/>
<feMorphology radius="6" operator="erode" in="SourceAlpha" result="effect1_dropShadow_62_232"/>
<feOffset dy="8"/>
<feGaussianBlur stdDeviation="5"/>
<feComposite in2="hardAlpha" operator="out"/>
<feColorMatrix type="matrix" values="0 0 0 0 0 0 0 0 0 0 0 0 0 0 0 0 0 0 0.1 0"/>
<feBlend mode="normal" in2="BackgroundImageFix" result="effect1_dropShadow_62_232"/>
<feColorMatrix in="SourceAlpha" type="matrix" values="0 0 0 0 0 0 0 0 0 0 0 0 0 0 0 0 0 0 127 0" result="hardAlpha"/>
<feMorphology radius="5" operator="erode" in="SourceAlpha" result="effect2_dropShadow_62_232"/>
<feOffset dy="20"/>
<feGaussianBlur stdDeviation="12.5"/>
<feComposite in2="hardAlpha" operator="out"/>
<feColorMatrix type="matrix" values="0 0 0 0 0 0 0 0 0 0 0 0 0 0 0 0 0 0 0.1 0"/>
<feBlend mode="normal" in2="effect1_dropShadow_62_232" result="effect2_dropShadow_62_232"/>
<feBlend mode="normal" in="SourceGraphic" in2="effect2_dropShadow_62_232" result="shape"/>
</filter>
<linearGradient id="paint0_linear_62_232" x1="335.512" y1="101.821" x2="426.405" y2="101.821" gradientUnits="userSpaceOnUse">
<stop stop-color="#38BDF8"/>
<stop offset="1" stop-color="#0EA5E9"/>
</linearGradient>
<linearGradient id="paint1_linear_62_232" x1="432.287" y1="119.85" x2="667.599" y2="119.85" gradientUnits="userSpaceOnUse">
<stop stop-color="#38BDF8"/>
<stop offset="1" stop-color="#0EA5E9"/>
</linearGradient>
<linearGradient id="paint2_linear_62_232" x1="675.572" y1="119.558" x2="777.681" y2="119.558" gradientUnits="userSpaceOnUse">
<stop stop-color="#38BDF8"/>
<stop offset="1" stop-color="#0EA5E9"/>
</linearGradient>
<clipPath id="clip0_62_232">
<rect width="448" height="182.516" fill="white" transform="translate(335.5 99)"/>
</clipPath>
</defs>
</svg>
