<svg width="540" height="220" viewBox="-24 -13 540 220" fill="none" xmlns="http://www.w3.org/2000/svg">
<!--
  Loop Logo — Figma Base File
  
  L: all corners r=12, bar 34px optical
  ∞: original path, translate +10
  p: ORIGINAL proportions (no scale), translate +10
  
  Figma TODO: 
  - p 볼 하단 앵커 16px 아래로 (y130→146, L baseline 정렬)
  - p 카운터 원형으로 조정
  - p 디센더 폭 32px로 (L과 동일)
-->

<!-- L -->
<path d="M12 145.96C5.373 145.96 0 140.587 0 133.96V12C0 5.373 5.373 0 12 0H20.156C26.783 0 32.156 5.373 32.156 12V99.96C32.156 106.587 37.529 111.96 44.156 111.96H87.7C94.327 111.96 99.7 117.333 99.7 123.96V133.96C99.7 140.587 94.327 145.96 87.7 145.96H12Z" fill="#00BCFF"/>

<!-- ∞ -->
<path transform="translate(10, 0)" d="M154.117 19.883C146.033 20.7696 141.131 21.917 133.569 24.7592C130.309 25.9848 121.704 31.0696 119.696 32.9471C119.409 33.2079 118.653 33.8076 118.001 34.277C116.385 35.4504 112.447 39.4661 110.205 42.2823C109.162 43.56 108.171 44.8117 107.988 45.0464C107.336 45.8286 105.485 48.6449 105.485 48.8013C105.485 48.9056 105.25 49.3228 104.937 49.74C103.112 52.2955 99.2787 61.5003 98.2096 65.8811C94.3764 81.5528 95.941 98.1893 102.538 111.384C104.337 114.982 107.493 120.067 109.162 122.101C109.657 122.701 110.361 123.561 110.752 124.057C112.656 126.482 118.523 131.723 122.539 134.591C123.999 135.608 128.093 138.112 128.301 138.112C128.38 138.112 129.449 138.607 130.7 139.233C135.837 141.736 139.775 143.04 145.772 144.213C154.716 145.96 164.703 145.96 173.178 144.239C182.096 142.414 186.399 140.719 195.942 135.243C197.742 134.2 203.739 129.767 205.617 128.072C210.988 123.222 214.587 119.598 218.785 114.774C220.897 112.322 223.244 109.637 223.974 108.776C225.669 106.846 225.669 106.82 228.511 103.274C229.763 101.683 231.693 99.3366 232.762 98.0589C233.857 96.7812 236.178 93.9389 237.977 91.7224C239.75 89.506 242.123 86.5854 243.244 85.2034C244.366 83.8214 246.087 81.7092 247.025 80.4837C247.99 79.2842 249.659 77.2763 250.728 76.0507C251.797 74.7991 253.205 73.1563 253.857 72.4001C260.168 64.8381 267 58.0844 271.302 55.1899C273.545 53.7036 278.551 51.0178 279.125 51.0178C279.281 51.0178 279.699 50.8613 280.011 50.6527C280.324 50.4441 281.55 50.0269 282.723 49.74C288.877 48.1755 296.518 48.5405 301.941 50.6788C304.366 51.6436 307.104 53.0517 307.261 53.4168C307.313 53.5211 307.47 53.6254 307.6 53.6254C308.017 53.6254 310.912 55.9722 312.502 57.615C316.883 62.1001 320.012 68.2801 321.446 75.2163C322.124 78.554 322.281 86.3768 321.707 89.4799C321.159 92.4786 320.116 95.8685 319.021 98.1632C318.474 99.3366 318.004 100.38 318.004 100.432C318.004 100.51 317.248 101.71 316.335 103.118C314.249 106.247 312.163 108.463 309.556 110.341C309.138 110.628 308.669 110.993 308.486 111.175C307.861 111.749 303.271 114.043 301.316 114.748C297.926 115.947 296.074 116.208 291.016 116.208C284.705 116.208 282.045 115.634 276.596 113.027C274.327 111.957 268.199 107.968 268.199 107.577C268.199 107.446 268.069 107.342 267.938 107.342C267.782 107.342 267.286 107.029 266.817 106.638C265.357 105.412 256.647 96.5986 255.161 94.8255C252.866 92.1136 251.198 90.3925 250.832 90.3925C250.65 90.3925 249.894 91.1227 249.164 92.0093C247.416 94.1736 243.557 98.789 242.253 100.301C241.106 101.631 240.871 101.944 239.515 103.691C239.02 104.343 238.029 105.569 237.273 106.429C236.543 107.29 235.656 108.333 235.317 108.75C234.978 109.193 234.274 110.002 233.753 110.575C232.371 112.166 231.693 113.235 231.693 113.809C231.693 114.8 238.055 121.736 244.209 127.42C248.303 131.228 256.413 136.599 262.149 139.337C265.618 140.98 266.869 141.475 270.546 142.545C296.804 150.341 324.758 142.675 340.169 123.457C344.628 117.903 346.61 114.695 348.904 109.298C349.556 107.707 350.208 106.195 350.338 105.908C351.59 103.196 353.129 96.8333 353.754 91.9571C354.719 84.2908 354.25 73.8082 352.659 67.3153C349.999 56.5459 345.28 47.5497 338.161 39.6486C329.165 29.6876 316.753 23.0121 302.75 20.6392C299.099 20.0395 292.632 19.6483 288.33 19.8048C275.37 20.2481 264.001 23.9248 253.075 31.1479C246.765 35.32 238.133 43.4297 231.041 51.8001C229.189 54.0165 227.025 56.5198 226.243 57.3803C225.487 58.2669 224.313 59.675 223.661 60.5355C222.357 62.2305 218.603 66.9763 218.394 67.1849C218.316 67.2631 217.768 67.8889 217.22 68.6191C216.647 69.3231 216.125 69.975 216.047 70.0533C215.969 70.1315 215.708 70.4705 215.499 70.8355C215.265 71.2006 213.57 73.3128 211.718 75.5814C209.867 77.8239 207.807 80.3533 207.129 81.1877C206.477 82.0221 205.695 82.987 205.382 83.3259C205.095 83.6649 202.983 86.1161 200.74 88.8019C187.363 104.552 180.923 110.158 171.457 114.226C169.84 114.904 166.138 115.895 163.973 116.208C161.027 116.651 154.456 116.208 151.092 115.321C142.434 113.105 134.56 105.908 131.039 96.9376C129.24 92.3222 128.301 86.429 128.51 81.0573C129.11 66.4808 136.828 55.0856 149.345 50.3919C154.925 48.2798 163.947 48.3319 170.258 50.4702C172.526 51.2525 177.794 53.9122 178.498 54.6684C178.576 54.7466 179.28 55.216 180.062 55.7375C180.844 56.259 181.914 57.0153 182.409 57.4325C183.921 58.632 192.5 67.3935 194.899 70.1836C198.029 73.8343 199.645 75.5292 200.036 75.5292C200.245 75.5292 201.392 74.2776 202.618 72.713C203.843 71.1745 204.991 69.7403 205.173 69.5317C205.356 69.3231 206.138 68.3062 206.92 67.3153C207.703 66.2983 208.459 65.3596 208.615 65.2031C208.746 65.0467 209.163 64.5251 209.528 64.0558C209.893 63.5864 210.31 63.0649 210.441 62.9084C210.597 62.752 211.536 61.5525 212.527 60.2748C213.518 58.971 215.421 56.598 216.751 54.9813C218.081 53.3646 219.176 51.9044 219.176 51.7218C219.176 50.7309 210.649 41.5783 205.747 37.2757C201.94 33.938 194.378 28.8271 190.049 26.6628C183.895 23.5858 176.933 21.4737 169.371 20.3524C166.737 19.9613 156.359 19.6483 154.117 19.883Z" fill="#00BCFF"/>

<!-- p — ORIGINAL proportions, no transform scale. 디센더 하단 라운드 -->
<path transform="translate(10, 0)" d="M363 171.5V57.4546C363 36.4678 380.013 19.4546 401 19.4546H421.386C433.979 19.4546 440.37 21.8179 448.908 26.5444C457.498 31.271 463.981 37.77 468.357 46.0415C472.786 54.2593 475 63.605 475 74.0786C475 83.4283 472.786 92.8277 468.357 101.046C463.928 109.263 457.392 118.735 448.748 123.462C440.103 128.135 429.458 130.471 416.812 130.471H383.33V102.899H415.893C426.154 102.899 436.588 97.891 441.304 88.3966C443.598 83.8849 444.746 79.9331 444.746 74.0786C444.746 68.2241 443.598 63.0679 441.304 58.6099C437.528 51.0976 428.323 44.4302 419.824 44.4302H413.694C402.096 44.4302 392.694 53.8322 392.694 65.4302V171.5C392.694 180.34 386.034 187.5 377.847 187.5C369.66 187.5 363 180.34 363 171.5Z" fill="#00BCFF"/>
</svg>
